<?xml version="1.0" encoding="UTF-8"?>
<!-- Generated by Pixelmator Pro 3.5.7 -->
<svg width="800" height="800" viewBox="0 0 800 800" xmlns="http://www.w3.org/2000/svg">
    <g id="Gruppo">
        <path id="Percorso" fill="#dd2e44" stroke="none" d="M 733 400 C 733 583.910828 583.910828 733 400 733 C 216.089172 733 67 583.910828 67 400 C 67 216.089172 216.089172 67 400 67 C 583.910828 67 733 216.089172 733 400 Z"/>
        <path id="path1" fill="#ffffff" stroke="none" d="M 649.75 400 C 649.75 537.933105 537.933105 649.75 400 649.75 C 262.066895 649.75 150.25 537.933105 150.25 400 C 150.25 262.066895 262.066895 150.25 400 150.25 C 537.933105 150.25 649.75 262.066895 649.75 400 Z"/>
        <path id="path2" fill="#dd2e44" stroke="none" d="M 585 400 C 585 502.172668 502.172699 585 400 585 C 297.827332 585 215 502.172668 215 400 C 215 297.827332 297.827332 215 400 215 C 502.172699 215 585 297.827332 585 400 Z"/>
        <path id="path3" fill="#ffffff" stroke="none" d="M 510.999969 400 C 510.999969 461.303619 461.303619 511 400 511 C 338.696381 511 289 461.303619 289 400 C 289 338.696381 338.696381 289.000031 400 289.000031 C 461.303619 289.000031 510.999969 338.696381 510.999969 400 Z"/>
        <path id="path4" fill="#dd2e44" stroke="none" d="M 455.5 400 C 455.5 430.651825 430.651825 455.5 400 455.5 C 369.348175 455.5 344.5 430.651825 344.5 400 C 344.5 369.348175 369.348175 344.5 400 344.5 C 430.651825 344.5 455.5 369.348175 455.5 400 Z"/>
        <path id="path5" fill="#000000" stroke="none" opacity="0.2" d="M 404.439972 405.21701 L 647.604004 622.666016 C 647.604004 622.666016 598.63446 685.121948 501.638977 717.182495 L 392.211517 407.77002 L 404.439972 405.21701 Z"/>
        <path id="path6" fill="#ffac33" stroke="none" d="M 405.439026 418.5 C 397.980133 418.524628 391.245209 414.041199 388.389954 407.150421 C 385.534637 400.259613 387.124664 392.32663 392.415009 387.068512 L 402.830505 376.653015 C 410.018341 369.460052 421.6763 369.455933 428.869232 376.643738 C 436.062195 383.831604 436.066345 395.489532 428.87851 402.682495 L 418.444489 413.097992 C 415.006073 416.565247 410.322113 418.510803 405.439026 418.5 Z"/>
        <path id="path7" fill="#55acee" stroke="none" d="M 511.296021 196.148499 C 503.840515 234.609985 511.296021 282.931946 511.296021 282.931946 L 641.794983 146.254028 C 647.178528 119.355042 632.026978 73.511963 610.012024 67.851013 C 587.997009 62.190002 534.550537 82.706482 511.296021 196.148499 Z M 603.851501 288.703979 C 565.390015 296.159485 517.067993 288.703979 517.067993 288.703979 L 653.745972 158.205017 C 680.644958 152.821472 726.487976 167.973022 732.148926 189.987976 C 737.809937 212.002991 717.293518 265.449524 603.851501 288.703979 Z"/>
        <path id="path8" fill="#3a87c2" stroke="none" d="M 673.763062 149.972534 L 458.756012 392.359497 C 452.05899 399.056488 427.805481 408.676483 412.321014 393.21048 C 396.855011 377.744507 404.569489 354.730499 411.266479 348.014984 L 655.577515 131.768494 C 655.577515 131.768494 668.083496 120.020996 677.018982 128.956543 C 685.954529 137.892029 673.763062 149.972534 673.763062 149.972534 Z"/>
    </g>
</svg>
